<svg width="4119" height="2756" viewBox="0 0 4119 2756" fill="none" xmlns="http://www.w3.org/2000/svg">
<path d="M4107 115V2753H2055C2136.24 2687.29 2316.48 2535.54 2387.53 2454.24L2438.14 2405.47L2510.43 2333.32L2777.9 2039.64L2824.37 1983.75L2926.61 1861.81L2951.39 1832.34L3002 1769.34L3047.44 1710.4L3102.17 1644.35C3353.12 1295.8 3905.41 501.961 4107 115Z" fill="url(#paint0_linear_1669_162202)" stroke="#3D469B"/>
<path d="M4107 121.5V0L3824 334.5C3710.4 472.1 3482 683.833 3382 772.5C3239.6 910.1 3116 1012.5 3072 1046.5C2932.8 1163.3 2783.33 1267.17 2726 1304.5C2598 1400.5 2346 1555.17 2236 1620.5C1973.6 1780.5 1669.33 1916.5 1550 1964.5C1330.8 2078.1 809.333 2233.17 576 2296.5C502.4 2318.9 285.333 2360.5 186 2378.5L2 2412.5V2752.5C339.6 2722.1 1056 2446.5 1372 2312.5C1541.6 2246.9 1946.67 2026.5 2128 1924.5C2273.6 1842.9 2528.67 1665.17 2638 1586.5C2738.8 1524.9 3072 1242.17 3226 1108.5C3282 1069.3 3565.33 774.167 3700 631.5C3740 592.3 3919 377.5 4003.5 275C4038.7 241.8 4087.17 158.833 4107 121.5Z" fill="#C5E0B5"/>
<path d="M1613.35 2784H571C1010.93 2652.92 1653.12 2296.03 1919.22 2133.97L2125.3 2009.75C2486.27 1800.71 3024.84 1324.38 3249 1112.34C3339.24 1033.52 3606.21 740.383 3728.41 603.666C3815.18 517.994 4042.96 218.859 4146 80L3993.06 337.014L3845.55 564.043L3681.77 801.781C3634.91 869.461 3531.37 1004.18 3485.45 1063.08C3391.74 1188.16 3249 1351.5 3189.34 1417.54C3113.85 1506.64 2933 1695.26 2852.01 1778.43C2761.77 1870.96 2606.16 2011.17 2539.64 2069.72C2409.48 2199.08 2120.24 2422.04 1991.89 2517.35L1613.35 2784Z" fill="#95CC7B" stroke="#95CC7B"/>
<path d="M2427 2465C2353.67 2541 2189 2704.6 2117 2751" stroke="#C5E0B5"/>
<path d="M2429 2469L2117 2753" stroke="#C5E0B5"/>
<g filter="url(#filter0_d_1669_162202)">
<path d="M2134.9 2754.78L1627 2755C1666.72 2737.32 2049.16 2422.61 2235.42 2267.46L2694.9 1843.06C2817.42 1725.68 3173.26 1335.6 3335.86 1155.23L3426.61 1046.38C3541.18 910.082 3812.76 555.255 3934.22 394.878L4171 51L3737.18 757.663C3569.32 1035.28 3413.93 1249.81 3357.21 1322.38C3189.34 1567.19 2946.96 1863.98 2846.76 1981.76C2622.16 2277.07 2278.6 2620.15 2134.9 2754.78Z" fill="#C5E0B5"/>
<path d="M2134.9 2754.78L1627 2755C1666.72 2737.32 2049.16 2422.61 2235.42 2267.46L2694.9 1843.06C2817.42 1725.68 3173.26 1335.6 3335.86 1155.23L3426.61 1046.38C3541.18 910.082 3812.76 555.255 3934.22 394.878L4171 51L3737.18 757.663C3569.32 1035.28 3413.93 1249.81 3357.21 1322.38C3189.34 1567.19 2946.96 1863.98 2846.76 1981.76C2622.16 2277.07 2278.6 2620.15 2134.9 2754.78Z" stroke="#C5E0B5"/>
</g>
<path d="M1 2755V2710.9C161.37 2725.33 677.227 2549.87 915.109 2460.34C1155.66 2386.57 1707.6 2112.89 1953.51 1985.28C2118.69 1914.72 2562.24 1603.75 2763.37 1457.09C2863.61 1387.34 3057.72 1220.9 3142.25 1146.4C3170.71 1125.15 3273.72 1031.3 3321.66 987.039L3425.9 884.309C3452.36 859.854 3533.48 775.565 3570.74 736.478C3594.79 710.419 3675.98 624.727 3713.57 585.138L3842.36 438.31L3952.12 306.013L4042.33 197.269C4067.58 167.202 4103.3 104.562 4118 77V117.09C4102.77 156.779 4058.53 217.816 4038.32 243.373C4010.25 280.255 3951.12 361.638 3925.05 397.719C3899.4 431.394 3854.89 488.589 3835.85 512.977C3810.99 542.643 3720.58 651.621 3678.49 702.401C3635.99 752.113 3552.53 845.388 3516.11 885.812C3452.77 957.974 3309.97 1104.3 3246.49 1168.45C3199.98 1218.16 3045.36 1358.2 2973.86 1422.01C2890.47 1501.39 2703.24 1650.86 2620.04 1715.67C2513.4 1802.27 2344.41 1920.8 2273.24 1969.24C2193.86 2027.77 2012.98 2138.62 1932.46 2186.73C1845.86 2245.26 1714.62 2314.01 1659.83 2341.07L1554.58 2398.2C1480.01 2439.89 1238.19 2553.21 1126.6 2604.66C1054.43 2635.93 844.613 2717.92 748.725 2755H1Z" fill="#B9DCA6" stroke="#B9DCA6"/>
<path d="M1 2755V2710.9C161.37 2725.33 677.227 2549.87 915.109 2460.34C1155.66 2386.57 1707.6 2112.89 1953.51 1985.28C2118.69 1914.72 2562.24 1603.75 2763.37 1457.09C2863.61 1387.34 3057.72 1220.9 3142.25 1146.4C3170.71 1125.15 3273.72 1031.3 3321.66 987.039L3425.9 884.309C3452.36 859.854 3533.48 775.565 3570.74 736.478C3594.79 710.419 3675.98 624.727 3713.57 585.138L3842.36 438.31L3952.12 306.013L4042.33 197.269C4067.58 167.202 4103.3 104.562 4118 77V117.09C4102.77 156.779 4058.53 217.816 4038.32 243.373C4010.25 280.255 3951.12 361.638 3925.05 397.719C3899.4 431.394 3854.89 488.589 3835.85 512.977C3810.99 542.643 3720.58 651.621 3678.49 702.401C3635.99 752.113 3552.53 845.388 3516.11 885.812C3452.77 957.974 3309.97 1104.3 3246.49 1168.45C3199.98 1218.16 3045.36 1358.2 2973.86 1422.01C2890.47 1501.39 2703.24 1650.86 2620.04 1715.67C2513.4 1802.27 2344.41 1920.8 2273.24 1969.24C2193.86 2027.77 2012.98 2138.62 1932.46 2186.73C1845.86 2245.26 1714.62 2314.01 1659.83 2341.07L1554.58 2398.2C1480.01 2439.89 1238.19 2553.21 1126.6 2604.66C1054.43 2635.93 844.613 2717.92 748.725 2755H1Z" fill="#B9DCA6" stroke="#B9DCA6"/>
<defs>
<filter id="filter0_d_1669_162202" x="1622.8" y="50.7165" width="2552.63" height="2712.78" filterUnits="userSpaceOnUse" color-interpolation-filters="sRGB">
<feFlood flood-opacity="0" result="BackgroundImageFix"/>
<feColorMatrix in="SourceAlpha" type="matrix" values="0 0 0 0 0 0 0 0 0 0 0 0 0 0 0 0 0 0 127 0" result="hardAlpha"/>
<feOffset dy="4"/>
<feGaussianBlur stdDeviation="2"/>
<feComposite in2="hardAlpha" operator="out"/>
<feColorMatrix type="matrix" values="0 0 0 0 0 0 0 0 0 0 0 0 0 0 0 0 0 0 0.25 0"/>
<feBlend mode="normal" in2="BackgroundImageFix" result="effect1_dropShadow_1669_162202"/>
<feBlend mode="normal" in="SourceGraphic" in2="effect1_dropShadow_1669_162202" result="shape"/>
</filter>
<linearGradient id="paint0_linear_1669_162202" x1="2055" y1="454.301" x2="4107" y2="2413.7" gradientUnits="userSpaceOnUse">
<stop offset="0.598665" stop-color="#002248"/>
<stop offset="0.803832" stop-color="#01308C"/>
<stop offset="1" stop-color="#01308C"/>
</linearGradient>
</defs>
</svg>
